<svg width="489" height="155" viewBox="0 0 489 155" fill="none" xmlns="http://www.w3.org/2000/svg">
<path d="M26.7 42.7903C26.7 31.1573 14.746 21.7269 0 21.7269L6.23114e-07 63.8536C14.746 63.8536 26.7 54.4232 26.7 42.7903Z" fill="black"/>
<path d="M80.6933 102.124C80.6933 85.2476 63.6921 71.5669 42.72 71.5669V132.68C63.6921 132.68 80.6933 119 80.6933 102.124Z" fill="black"/>
<path d="M37.9733 102.124C37.9733 85.2476 20.9721 71.5669 0 71.5669L9.03954e-07 132.68C20.9721 132.68 37.9733 119 37.9733 102.124Z" fill="black"/>
<path d="M68.8267 42.7903C68.8267 31.1573 57.1383 21.7269 42.72 21.7269V63.8536C57.1383 63.8536 68.8267 54.4232 68.8267 42.7903Z" fill="black"/>
<path d="M145.96 118.96C133.72 118.96 125.56 113.68 123.16 105.4H123.04C123.04 109.6 123.28 115 123.52 118H110.08V34.84H123.52V61.72C123.52 64.24 123.4 69.04 123.28 71.92H123.4C125.92 63.28 134.08 57.76 145.84 57.76C162.88 57.76 173.08 69.04 173.08 87.28C173.08 106.84 162.64 118.96 145.96 118.96ZM142.48 107.92C153.04 107.92 159.64 100.24 159.64 87.64C159.64 76 153.28 68.8 142.72 68.8C130.96 68.8 123.52 76.24 123.52 88.24V91.24C123.52 101.56 130.84 107.92 142.48 107.92ZM184.72 118V58.72H198.16L197.68 75.76H197.8C200.56 65.08 206.68 57.76 218.92 57.76C231.76 57.76 238.84 66.16 238.84 80.92C238.84 84.64 238.48 89.44 238.24 91.96H226C226.24 89.68 226.48 86.68 226.48 83.92C226.48 73.96 222.64 69.28 214.72 69.28C204.52 69.28 198.16 77.92 198.16 92.08V118H184.72ZM250.705 51.76V38.56H264.505V51.76H250.705ZM250.825 118V58.72H264.265V118H250.825ZM334.513 86.2V91H290.113C290.833 102.4 297.193 108.52 307.273 108.52C315.913 108.52 321.793 104.68 322.393 97.72H334.513C334.033 110.92 323.233 118.96 307.033 118.96C288.313 118.96 276.553 107.44 276.553 88.84C276.553 69.64 288.313 57.76 307.033 57.76C323.833 57.76 334.513 67.72 334.513 86.2ZM322.393 82.84V82C322.393 73.12 316.873 68.2 307.153 68.2C297.913 68.2 292.033 73 290.473 82.84H322.393ZM350.164 118V69.64H340.684V58.72H350.164V52.84C350.164 39.64 358.924 32.44 371.764 32.44C377.044 32.44 381.364 33.4 383.284 34.12V44.8C381.364 44.2 378.244 43.36 374.164 43.36C367.324 43.36 363.604 46.96 363.604 53.44V58.72H384.244V69.64H363.604V118H350.164ZM394.564 118V34.84H408.004V118H394.564ZM435.468 143.08C430.908 143.08 427.308 142.12 425.628 141.52V130.96C427.308 131.44 430.068 132.16 433.068 132.16C439.308 132.16 442.188 129.04 446.628 118H443.388L417.708 58.72H433.188L452.028 104.44H452.268L468.948 58.72H482.148L459.588 119.2C452.988 136.96 447.228 143.08 435.468 143.08Z" fill="black"/>
</svg>
